<svg xmlns="http://www.w3.org/2000/svg" viewBox="0 0 1080 614.3">
  <title>Untitled-1</title>
  <g>
    <g>
      <path d="M552,5.29a227.66,227.66,0,0,0-56.28,11q-19.67,7.19-48,23.81-29.1,17-75.94,115.6-25.69,54.4-25.69,77.45,0,17.39,12.09,17.38,10.2,0,22.67-17a65.3,65.3,0,0,0,6.61-10q2.46-4.72,4-8.5a7.58,7.58,0,0,0,1.32-.19l2.84-.57q-20,41.94-42.7,41.94-15.11,0-23.42-11.72-7.19-9.81-7.17-26.06,0-45.72,80.09-147.35a368.28,368.28,0,0,0-64.23,62.34q-8.69,11-21.91,29.09t-31.36,44.21q-27.58,40-38.91,52.51a10.12,10.12,0,0,1-1.89-4.91q3-7.17,5.48-13.6t4.34-12.09q2.64-6.81,2.64-24.94,0-61.57,4.54-86.13,3.76-21.91,20.4-56.68Q260.3,83.88,235.75,136q-4.92,10.58-13.6,29.46t-21.54,46.1q-10.2,21.17-41.18,34.75-28.34,12.09-53.65,12.09-40.8,0-72.16-24.18Q0,207.41,0,168.5t24.94-68.38Q50.25,70.27,88.78,70.27q29.1,0,51,17.75,22.68,18.9,22.68,48,0,27.57-19.65,48.73-20.4,22.68-47.23,22.67-22.29,0-34-15.11-11.34-14-11.33-36.27,0-11,7.55-32.87l4.54,1.14Q54.4,143.56,54.41,156q0,20.4,10.76,33.81t30.41,13.42q24.94,0,44.2-21.54,18.53-20,18.52-45.71,0-27.21-21.54-45Q116,74.43,88.78,74.42q-37,0-61.58,29.1-23.79,28-23.8,65,0,30.6,25.31,55.91,29.85,29.85,77.07,29.85,54,0,97.48-78.59,21.15-38.14,35.51-63.09t22.29-37Q286,37,309.8,22.67,252.36,3,239.15,3q-34,0-54.78,12.85-25.71,15.87-25.69,47.6,0,17,9.44,29.84,10.57,14,27.2,14a26.23,26.23,0,0,0,19.27-7.93h2.27q-11.73,17.39-26.45,17.38-19.64,0-32.11-14.36-11.72-12.84-11.72-33.24,0-36.64,29.48-54.78Q200.22,0,239.15,0q11.7,0,74,20.4,7.95-4.53,14.74-4.53,7.94,0,7.94,5.66c0,4.29-2.91,6.43-8.69,6.43a20.49,20.49,0,0,1-7.56-1.89q-14.73,19.65-20,61.2-1.12,11-1.13,28.71.38,26.07,0,28.72-1.12,11-14.73,51Q361.18,83.13,444.67,35.89,479,16.63,491.51,12.09q24.94-8.68,60.83-11Z" style="fill: #ba925d"/>
      <path d="M494.54,254.63q-18.53,0-28.72-21.53-16.62,21.54-35.89,21.53Q405,254.63,405,218q0-32.12,25.69-56.67,26.07-24.93,58.18-24.94,12.84,0,19.27,9.07,4.53-5.67,7.93-5.67a41.45,41.45,0,0,1,7.93,1.14,42.16,42.16,0,0,0,7.94,1.13c1,0,3-1.64,6-4.91q4.53-4.53,6.43-5.29l-49.5,92.94q-6.42,12.09-6.42,17.38,0,7.56,8.31,7.55,12.84,0,49.5-36.64,13.22-13.23,24.36-25.32t20.22-23l3,2.64Q521.73,254.65,494.54,254.63Zm0-111.45q-22.31,0-46.47,38.92-21.54,34.76-21.54,55.16,0,12.47,7.56,12.46,15.11,0,29.84-24.93,38.55-65.74,38.54-72.54Q502.47,143.19,494.54,143.18Z" style="fill: #ba925d"/>
      <path d="M663,223.28q-30.6,31.36-59.7,31.35-19.27,0-19.65-27.2,0-8.69,15.5-35.51t15.49-30.22c0-1.76-.51-2.65-1.52-2.65q-2.26,0-9.82,6-7.56,5.66-14,5.66-8.68,0-8.69-14.35,0-8.68,6.43-18.51,6-10.2,14.73-10.2,9.07,0,9.07,8.68,0,10.59-13.22,26.07,31-26.07,39.66-26.07a12,12,0,0,1,9.45,4.35,15.36,15.36,0,0,1,3.78,10.39q0,4.9-7.93,18.51l-29.85,51q-7.18,11.72-7.18,15.49,0,10.2,9.82,10.2,29.85,0,86.52-81.6l3,2.64Q680,205.9,663,223.28Zm-61.21-89.92q-5.67,0-10.58,8.31t-4.91,14.74q0,6.42,4.15,6.42,14.75-18.51,14.74-26.07C605.23,134.5,604.1,133.36,601.83,133.36Z" style="fill: #ba925d"/>
      <path d="M840.6,196.08q-10.59,12.84-21.54,23.8-35.89,34.76-62,34.75-19.64,0-22.29-31-8.31,9.83-14.16,15.67t-8.88,8.5a38.81,38.81,0,0,1-22.67,6.8q-19.27,0-19.26-18.13,0-16.62,12.46-40.05l27.58-51.38q3-5.28,10.2-5.29a25.64,25.64,0,0,1,5.85,1.33,25.06,25.06,0,0,0,6.62,1.32q1.88,0,6.8-4.91t6.8-5.67l-45,84.63q-6,11.72-6,21.15,0,9.84,9.06,9.83,6.81,0,24.18-21.91,14.75-18.9,20-28.34l29.47-52.51c1.76-3.27,4.66-4.92,8.69-4.92a29.3,29.3,0,0,1,7,1.33,29.27,29.27,0,0,0,6.61,1.32q1.51,0,6.42-4.91,5.29-5.29,7.18-5.67l-48,90.3q-6,10.95-6,16.62,0,7.56,9.82,7.55,16.62,0,49.11-33.62a363.3,363.3,0,0,0,40.05-48l3,2.64A356.23,356.23,0,0,1,840.6,196.08Z" style="fill: #ba925d"/>
    </g>
    <path d="M950.3,311.75q-2.77,2.78-7.92,7.49T930,330.91q-8.06,7.23-25,16.66-6.94,13.6-10.83,21.25t-5,9.86q-5.28,9.44-10,16.38A95.73,95.73,0,0,1,870,406.73q-13.06,13-28.06,13a22.78,22.78,0,0,1-16-6,19.94,19.94,0,0,1-6.53-15.41q0-16.39,21.39-29.44,14.43-8.9,44.43-18.33L897,327.58Q878.92,340.9,870,340.91q-14.71,0-14.72-18.33A36.61,36.61,0,0,1,860,305.36l22.22-42.22q3.6-6.66,7.77-6.66a20.69,20.69,0,0,1,5.56,1.11,20.37,20.37,0,0,0,5.27,1.11c.56,0,2.13-1.29,4.73-3.89q3.6-3.6,5.27-4.16L877,314q-4.17,8.32-4.17,13.61c0,5.18,1.21,7.77,3.61,7.77s6.57-1.66,12.5-5q11.12-6.11,15.83-15l29.16-52.22q3.62-6.66,7.78-6.66a17.87,17.87,0,0,1,5.27,1.11,17.76,17.76,0,0,0,4.73,1.11c.74,0,2.4-1.29,5-3.89q3.6-3.6,5.27-4.16l-18.32,35.27a321.36,321.36,0,0,1-16.39,28.33q-9.16,14.16-19.72,29.16a107.37,107.37,0,0,0,21.38-15.83l19.17-18.33,36.66-34.44,2.22,1.94Q977.8,285.92,950.3,311.75Zm-92.21,51.79q-10.55,4.59-16.11,7.64-20.26,11.94-20.27,26.94,0,11.67,11.67,11.66,12.78,0,30-23,3.61-4.73,8.75-12.91t12.36-20.42Q868.64,359,858.09,363.54Z" style="fill: #ba925d"/>
    <g>
      <path d="M718.08,417.84a51.41,51.41,0,0,1-20.78,8.31l-3.78-3.77A46.63,46.63,0,0,0,712,414.82q11.33-6.81,11.33-15.11,0-17-26.83-28.34-21.52-8.69-41.17-8.69-20.79,0-52.9,13.23,7.54,8.31,12.09,13.6c3,3.53,5.16,6,6.42,7.55q10.2,14.37,10.21,29.09,0,21.54-14,36.65Q607,474.14,584.71,487q18.15,22.29,18.14,58.18,20-6.79,40.8-25.31l3,3a168.37,168.37,0,0,1-46.1,28.71,91,91,0,0,1-15.49,26.83,98.77,98.77,0,0,1-22.48,19.83,95.7,95.7,0,0,1-28,12.09,125.49,125.49,0,0,1-31.55,4q-25.69-.76-25.69-17.38,0-24.18,34-35.14a167.87,167.87,0,0,1,51-7.55q12.48-11.34,12.47-41.94a126.28,126.28,0,0,0-2.26-23q-2.65.39-5.1.57c-1.65.13-3.22.19-4.72.19a19.2,19.2,0,0,1-9.83-3.21q-5.29-3.21-5.29-7.75,0-8.3,12.09-8.31,8.69,0,18.13,8.31,30.23-28.32,30.23-52.89,0-37-15.11-45.33-14.37,7.19-42.32,45.33-9.83,13.23-19.26,46.85-10.59,35.89-18.52,48.36-31.35,48.36-63.47,68.76-38.91,24.17-97.09,24.18-49.87,0-80.09-27.58Q240.15,558,240.16,508.89q0-55.15,39.3-96.34,38.9-41.18,94.45-41.18,19.63,0,46.84,11,30.6-17.76,37-20.4,26.43-9.82,61.2-9.82,27.57,0,49.11,7.55,5.29,1.9,12.09,4.91t15.11,7.18a87.26,87.26,0,0,1,8.88-3.59q5.87-2.07,14.17-5.1,13.6-4.9,37-4.91,21.15,0,45,10.2Q729,380.82,729,399.71,729,409.91,718.08,417.84Zm-199.1-62q-31.74,0-54.4,7.94-17.77,6-40.05,21.53,54,33.63,54,86.89a26,26,0,0,0-.75,4.54q-.37,3.39-1.14,8.69,3.78-6.42,7.75-13.41c2.65-4.66,4-9,4-13q.76-8.68-7.93-25.31l4.16-1.13q2.64,4.91,4,7.18a19.58,19.58,0,0,0,1.69,2.64,47.27,47.27,0,0,1,3,16.24q0,18.14-20.4,38.54a87.37,87.37,0,0,1-11.15,21.53,80.13,80.13,0,0,1-16.25,17,74,74,0,0,1-20.2,11.14,67.33,67.33,0,0,1-23.05,4v-5.29a67.76,67.76,0,0,0,30.6-7.56q23.42-12.09,30.61-34.76-17.77,5.67-26.83,5.67-25.32,0-40.42-17.38-14-16.23-14-41.93,0-23,14.36-43.07,3.78-5.28,20-20.4a87.59,87.59,0,0,0-42.69-11q-52.14,0-91.06,40.8-38.52,40.44-38.53,92.94,0,46.85,31,74.43,29.47,26.07,77.07,26.07,24.94,0,51.38-14a169.61,169.61,0,0,0,43.07-32.3q19.28-19.85,32.49-49.31.75-2.26,4.34-11.14t9.64-24.75a185.14,185.14,0,0,1,37.4-60.45q27.19-29.83,57.43-41.55A125.9,125.9,0,0,0,519,355.88ZM420.75,388q-18.13,18.12-23.8,26.44Q386.38,429.93,386.37,450q0,23.79,13.22,38.91t37,15.11a45.51,45.51,0,0,0,31.74-12.47Q474,478.67,474,472.24,474,417.48,420.75,388Zm92.18,178.32q-31,9.45-31,30.6,0,10.2,15.86,10.58,21.54.38,43.83-21.92Q545,581.44,550,575t11.33-15.12Q534.1,559.89,512.93,566.32Zm46.85-90.68c-3,0-4.53,1.14-4.53,3.4,0,3.54,2.51,5.29,7.56,5.29a25.12,25.12,0,0,0,8.68-1.51Q565.45,475.65,559.78,475.64Z" style="fill: #ba925d"/>
      <path d="M740,557.63q-5.65,2.26-17,5.66a112.61,112.61,0,0,1-31.74,32.87q-21.91,14-43.07,14-12.09,0-20.77-11a39.32,39.32,0,0,1-7.56-23.42q0-32.49,26.07-58.18,26.82-25.68,58.93-25.69,14,0,22.29,10.58a39.16,39.16,0,0,1,8.32,24.93,45.17,45.17,0,0,1-3.41,17.38q-.75,1.9-2.26,5.29t-3.4,7.56c1-.25,2.45-.69,4.34-1.33a68.91,68.91,0,0,0,7-2.83q20.4-9.83,45.72-33.24l3,2.64Q773.23,539.12,740,557.63Zm-36.27-61.21q-17.76,0-40.8,39.67-21.92,37-21.91,57,0,12.09,7.17,12.09,19.65,0,46.85-45-20.78-6.79-20.78-18.51,0-12.09,11.71-12.09,7.93,0,7.94,7.94,0,6.42-10.2,7.55,3,9.83,14.35,11.33,14.75-31,14.74-50.62Q712.79,496.43,703.72,496.42Z" style="fill: #ba925d"/>
      <path d="M855.59,578.78Q825,610.15,795.9,610.14q-19.27,0-19.65-27.2,0-8.69,15.5-35.51t15.49-30.23c0-1.76-.51-2.64-1.52-2.64q-2.26,0-9.82,6-7.56,5.67-14,5.67-8.68,0-8.69-14.36,0-8.69,6.42-18.51,6-10.2,14.74-10.2,9.08,0,9.07,8.69,0,10.59-13.23,26.07,31-26.07,39.67-26.07a12,12,0,0,1,9.45,4.35,15.33,15.33,0,0,1,3.78,10.38q0,4.92-7.94,18.52l-29.84,51q-7.19,11.72-7.18,15.49,0,10.2,9.82,10.2,29.84,0,86.51-81.6l3,2.64Q872.59,561.41,855.59,578.78Zm-61.2-89.91q-5.67,0-10.58,8.31t-4.91,14.73q0,6.44,4.15,6.43,14.75-18.51,14.74-26.07Q797.79,488.87,794.39,488.87Z" style="fill: #ba925d"/>
      <path d="M887.32,610.14q-23.42,0-23.42-21.91,0-17.76,14-43.07,3-6,8.88-16.44t14.17-25.5q4.53-7.94,10.2-7.93a23.18,23.18,0,0,1,7.93,1.7,45.4,45.4,0,0,0,4.91,1.7q1.5,0,6.81-5.29t7.55-6l-48,91.42a35,35,0,0,0-3,14.36q0,9.83,8.32,9.82,8.68,0,45.71-37.4,27.2-27.57,41.94-45.33l3,2.64Q911.87,610.14,887.32,610.14ZM958.16,462.8q-5.48,6.79-13,6.8a13.58,13.58,0,0,1-10.2-4.34,14.51,14.51,0,0,1-4.15-10.39,19.16,19.16,0,0,1,5.66-13.79,18.27,18.27,0,0,1,13.6-5.86,13.84,13.84,0,0,1,9.63,3.59,11.91,11.91,0,0,1,4,9.26A23,23,0,0,1,958.16,462.8Z" style="fill: #ba925d"/>
      <path d="M1034.66,577.65q-15.11,9.83-36.64,13.22-17.78,20-41.56,20-29.85,0-29.84-26.07a23.39,23.39,0,0,1,4.91-14.92,15.94,15.94,0,0,1,13.22-6.24q6,0,14,6.8,10.95,9.07,12.84,9.82,6-4.53,9.83-14.73a54,54,0,0,0,3.77-18.51q0-6.42-3.77-17.76Q978,516.83,978,510.4a61.32,61.32,0,0,1,4.16-22.67q4.9-13.59,15.87-13.6,9.43,0,9.44,6.8,0,8.32-11.71,29.09,11.32,26.07,11.33,41.19,0,23.79-6.8,34.37,22.29-4.91,35.52-14.73,19.26-14.36,41.18-50.62l3,2.64Q1056.2,562.92,1034.66,577.65Zm-76.31-.76c-5.54-4.27-9.19-6.42-11-6.42q-6.79,0-6.8,7.56,0,8.31,12.09,10.58,12.09,0,15.11-4.54Q966.29,583.7,958.35,576.89Zm40-99.36q-3,0-5.28,6.8a30.17,30.17,0,0,0-1.89,9.07q0,8.33,2.26,12.09,9.43-12.84,9.45-23.8Q1002.93,477.54,998.39,477.53Z" style="fill: #ba925d"/>
    </g>
  </g>
</svg>
