<?xml version="1.0" encoding="utf-8"?>
<!-- Generator: Adobe Illustrator 23.0.1, SVG Export Plug-In . SVG Version: 6.00 Build 0)  -->
<svg version="1.1" id="Layer_1" xmlns="http://www.w3.org/2000/svg" xmlns:xlink="http://www.w3.org/1999/xlink" x="0px" y="0px"
	 viewBox="0 0 512 512" style="enable-background:new 0 0 512 512;" xml:space="preserve">

<path  fill='#0F6DF7' d="M512,272c-1.3,9.7-2.4,19.5-4.1,29.1c-4.8,27.4-14,53.4-27.4,77.8c-2.8,5.1-7,6.6-11.1,4.3
	c-4-2.3-4.9-6.6-2.1-11.7c13.8-25.6,23-52.7,26.9-81.5c7.8-57.1-2.6-110.7-33-159.5C422.7,68.5,367.1,30.2,295,18.6
	C222.7,6.9,157.4,24.8,101,72c-43.4,36.3-70.4,82.8-81.5,138.4C-1.2,315,51.8,423.1,147.2,470.8c105.3,52.7,230.6,23.4,301.8-70.7
	c1.3-1.7,2.7-3.6,4.5-4.5c3.2-1.7,6.6-1.2,9.1,1.7c2.7,3.2,2.6,6.9-0.1,10.1c-9.1,10.6-17.6,21.8-27.6,31.6
	c-44.2,43.1-97.4,67.1-159,72.2c-1.3,0.1-2.6,0.6-3.8,0.8c-10.7,0-21.3,0-32,0c-1.3-0.3-2.5-0.6-3.8-0.8c-12-1.8-24.2-2.8-36-5.3
	C100.9,484.9,20.5,400.7,3.9,300.6C2.4,291.1,1.3,281.5,0,272c0-10.7,0-21.3,0-32c1.6-11.3,2.9-22.7,5-34
	C24,104,109.1,20.8,211.4,3.9c9.5-1.6,19.1-2.6,28.6-3.9c10.7,0,21.3,0,32,0c1.3,0.3,2.6,0.6,3.9,0.8c13.1,2,26.5,3.3,39.4,6.2
	c98.6,22.5,176.2,105.1,192.9,204.8c1.6,9.3,2.6,18.8,3.9,28.1C512,250.7,512,261.3,512,272z"/>
<path fill='#0F6DF7'  d="M467.4,256.2c-2.1,70.9-30.7,128.4-87.8,171.1c-6.8,5.1-10.7,4.1-14.8-3.3C300.9,307.2,236.9,190.4,173,73.7
	c-3.9-7.2-2.5-11.1,4.9-14C296.6,13,428.4,79.9,460.6,203.2C465.1,220.5,467.4,238.2,467.4,256.2z M322.2,314.6
	c18.1,33,35.5,64.9,53,96.8c78.4-59.3,104.1-175,43.3-264.8C357.1,56,250.8,46.5,189.8,72.2c0.3,0.7,0.7,1.5,1,2.2
	c28.1,51.4,56.2,102.8,84.3,154.2c1.4,2.6,3.1,3.3,5.9,3.3c24.2-0.1,48.3-0.1,72.5-0.1c1.9,0,3.9,0,6.4,0c-3.2-7-8.3-11-14.6-12.6
	c-5.9-1.5-12.1-2.2-18.2-2.5c-24.3-1.2-43-11.6-55.5-32.8c-1.4-2.3-3.3-4.5-5.5-6.1c-28.8-21.2-24.4-67.5,7.8-82.8
	c24.3-11.5,55.4-4.2,73.4,17.2c9.2,10.9,14.9,23.6,18.7,37.2c0.5,1.9,1.5,4.2,3,5.3c24.5,17.3,33.9,42.2,30.8,70.5
	c-2.1,19.1-2.6,38.1-2.9,57.1c-0.1,7,0,14,0,21c0,9-2.2,11.1-11.3,11.1c-19,0-38,0-57,0C326.9,314.6,325.1,314.6,322.2,314.6z
	 M383.9,231.4c2.6-8.9,2.1-18.2-0.1-27.3c-3.5-15-9.5-28.7-23.6-36.6c-4.9-2.8-7.2-6.1-8.4-11.3c-2.4-11.2-6.8-21.6-13.6-30.8
	c-12.3-16.6-28.8-22.9-49.1-19.4c-14,2.5-23.8,12.3-26.3,25.9c-2.7,14.8,2.9,27.8,14.9,35.4c2.4,1.5,4.5,3.9,5.8,6.5
	c6.8,13.9,17.5,23,32.6,26.2c6.8,1.4,13.9,1.3,20.8,2c16.4,1.7,30.1,8.1,36.8,24.1C375.9,231.3,378.3,233.2,383.9,231.4z
	 M285.4,247.3c8.4,15.4,16.8,29.8,24.2,44.6c2.9,5.8,6.2,7.8,12.6,7.4c9.6-0.6,19.2-0.2,28.8-0.2c0-17.7,0-34.7,0-51.9
	C329.1,247.3,307.7,247.3,285.4,247.3z M381.5,299c0-17.6,0-34.6,0-51.6c-5,0-9.6,0-14.4,0c0,17.3,0,34.4,0,51.6
	C372,299,376.6,299,381.5,299z"/>
<path fill='#0F6DF7'  d="M136.7,100.7C63.2,156.1,35.4,262.3,84.4,350.5c51.1,92,156.8,120.4,238,89.7c-0.6-1.3-1.2-2.7-1.9-4
	c-21.4-39.1-42.9-78.2-64.2-117.4c-1.8-3.2-3.7-4.4-7.4-4.3c-45,0.1-90,0.1-135,0.1c-10.5,0-12.2-1.6-12.2-12.2c0-20,0-40,0-60
	c0-8.2,2.2-10.4,10.3-10.4c30,0,60,0,90,0c1.8,0,3.6,0,6.2,0c-1-2.1-1.6-3.7-2.5-5.2c-7.2-13.1-14.6-26.2-21.4-39.5
	c-1.2-2.3-0.9-6.3,0.3-8.7c0.9-1.7,4.8-3.4,6.6-2.9c2.6,0.8,5.4,3.2,6.8,5.7c13.1,23.4,25.9,46.9,38.8,70.4
	c33.8,61.8,67.6,123.5,101.4,185.3c4.9,8.9,3.7,12.1-5.7,15.8c-119.4,47-255.8-24.7-282.3-150.2C31.7,214.8,60,142.4,130.2,86.3
	c0.9-0.7,1.9-1.4,2.8-2.1c6.1-4.3,10.3-3.4,13.9,3.1c9.7,17.6,19.4,35.3,29,53c1.9,3.5,3.9,7,5.7,10.5c2.9,5.4,2,9.9-2.3,12.1
	c-4.1,2.1-8.1,0.5-11-4.7c-9.7-17.6-19.4-35.3-29-53C138.5,103.8,137.7,102.4,136.7,100.7z M117.2,298.9c20.5,0,40.5,0,60.7,0
	c0-17.3,0-34.4,0-51.5c-20.4,0-40.5,0-60.7,0C117.2,264.6,117.2,281.5,117.2,298.9z M194,247.1c0,17.6,0,34.6,0,51.9
	c17.1,0,33.8,0,50.6,0c0-0.6,0.1-0.9,0-1.2c-8.8-16.2-17.6-32.4-26.6-48.6c-0.5-1-2-2-3-2C208.1,247,201.1,247.1,194,247.1z"/>
</svg>
