<?xml version="1.0" encoding="utf-8"?>
<!-- Generator: Adobe Illustrator 23.0.1, SVG Export Plug-In . SVG Version: 6.00 Build 0)  -->
<svg version="1.1" id="Layer_1" xmlns="http://www.w3.org/2000/svg" xmlns:xlink="http://www.w3.org/1999/xlink" x="0px" y="0px"
	 viewBox="0 0 384 360" style="enable-background:new 0 0 384 360;" xml:space="preserve" fill='#BA925D'>
<g>
	<path d="M384,326.7c-2.5,2.4-4.6,5.2-7.4,7c-12.9,8.3-26.1,16.2-39.2,24.3c-6,3.7-10.9,2.4-14.6-3.5c-7.9-12.5-5.1-25,7.4-32.8
		c1.5-0.9,2.9-1.8,4.6-2.9c-0.7-1.2-1.2-2.1-1.7-3.1c-9.1-14.8-18.2-29.5-27.3-44.4c-1.3-2.1-2.3-2.8-5-2c-11.2,3.1-22,0.4-32.7-3.2
		c-17.6-5.9-30.7-17.5-41.7-32.2c-22-29.5-39.7-61.3-52.8-95.8c-3-7.9-1.5-12.3,5.6-16.7c19.4-12,38.9-24,58.3-36
		c7.9-4.9,12.1-4.4,18.3,2.6c4.9,5.5,9.7,11.1,14.5,16.7c2.8,3.3,2.8,6.7,0.2,8.9c-2.8,2.3-5.7,1.8-8.7-1.7
		c-5.3-6.1-10.6-12.3-15.9-18.5c-21.1,13-41.8,25.7-62.6,38.6c9.5,25.4,21.4,49.2,36,71.9c4.2-1.6,8.3-3.2,12.4-4.7
		c3.8-1.4,7-0.2,8.1,2.8c1.2,3.2-0.3,6-4.2,7.6c-3.2,1.3-6.5,2.5-10,3.9c9.6,13.2,18.1,26.9,32.3,35.4c10,6,20.8,9.7,32.5,10.4
		c9.4,0.5,17.3-4.2,21-12.8c6.3-14.7,7.3-29.9,3.2-45.8c-1.2,0.5-2.2,0.8-3.1,1.3c-13.8,6.1-28.1,7.7-42.9,5.2
		c-2.6-0.4-5.2-0.8-7.8-1.1c-3.8-0.5-6-2.9-5.7-6.1c0.3-3.3,3.2-5.4,7.1-5c3.8,0.5,7.7,1.1,11.5,1.6c12.9,1.6,25.1-0.4,37-6.7
		c-2.7-5.5-5.1-11-8.1-16.1c-7.7-13.1-15.8-26.1-23.7-39.1c-0.5-0.9-1.2-1.6-1.7-2.5c-2.1-3.3-1.7-6.4,1-8.3
		c2.7-1.9,5.9-1.3,8.1,1.9c4.6,6.7,9.4,13.3,13.4,20.3c7.2,12.6,14.3,25.2,20.5,38.2c10.1,21,10.6,42.7,2.1,64.3
		c-1.9,5-5.4,9.4-8.4,14.7c9.8,15.8,20,32.5,30.4,49.3c1.9-1.2,3.5-2.1,5-3.1c12.1-7.4,24.5-4.4,31.9,7.6c0.8,1.4,1.7,2.7,2.5,4.1
		C384,323.2,384,324.9,384,326.7z M372,323.5c-3.8-6.3-9.1-8.4-14.6-5.3c-8,4.6-15.9,9.4-23.5,14.5c-5.2,3.5-5.7,10.1-1.4,15.1
		C345.5,339.8,358.7,331.7,372,323.5z"/>
	<path d="M0,320.7c3.2-6.1,7.1-11.4,14.1-13.7c6.5-2.2,12.5-1.4,18.4,1.9c2.1,1.2,4,2.5,6.4,3.9c10.3-16.8,20.6-33.4,30.5-49.5
		c-17-24-18.7-49.5-7.8-75.3c16.1-38.1,39.6-71.6,67.6-101.9c4.1-4.4,9.1-5.1,14.3-2c9.7,5.9,19.4,11.9,29,17.9
		c3.4,2.1,4.3,5.4,2.5,8.2c-1.8,2.8-5.1,3.3-8.6,1.1c-9.6-5.9-19.1-11.8-28.9-17.8c-26.6,28.8-48.3,60.8-64.9,96.4
		c11.3,6.2,23.4,9.1,35.7,6.7c18.9-3.6,36.7-1.4,54,6.7c0.4,0.2,0.9,0.3,1.8,0.6c3.3-5.4,6.5-10.9,9.9-16.2c1.8-2.8,4.8-3.6,7.5-2.1
		c2.8,1.5,3.6,4.6,2.1,7.8c-0.3,0.7-0.7,1.3-1.1,1.9c-10,14.8-19.9,29.7-30.2,44.2c-3.2,4.5-7.6,8.3-11.6,12.1
		c-3.4,3.2-6.8,3.2-9.1,0.4c-2.2-2.6-1.6-5.8,1.9-8.7c9.8-8.3,16.4-19.1,24.2-29.5c-8.8-4.2-17.7-7.3-27.3-7.6
		c-4.7-0.2-9.5,0-14.2,0.9c-15.9,2.9-31.1,1.4-45.7-5.5c-0.4-0.2-0.9-0.3-2.3-0.8c-0.6,6.5-2.1,12.7-1.7,18.7
		c0.5,7.8,1.7,15.7,4,23.1c4.1,13.6,13.7,18.9,27.7,16.4c4.8-0.9,9.5-2.3,14.1-3.6c4-1.1,6.9-0.1,8.1,3.1c1.1,3.1-0.5,6.2-4.3,7.4
		c-11.4,3.7-22.8,6.8-34.9,3.2c-0.8-0.2-2.3,0.3-2.7,1c-10,16.1-20,32.2-30.1,48.6c2.5,1.6,4.8,3,7,4.5c10.9,7.5,12.7,22.7,4.1,32.6
		c-2.9,3.4-7.6,4.4-11.6,2c-14.6-8.9-29.2-17.9-43.7-27c-1.8-1.1-2.9-3.2-4.4-4.9C0,324.2,0,322.4,0,320.7z M12.1,322.5
		c13.3,8.2,26.5,16.3,39.6,24.4c3.5-5.4,2.6-11.1-2.5-14.5c-7.4-4.8-15-9.5-22.6-14C21.1,315.3,15.9,316.8,12.1,322.5z"/>
	<path d="M191.6,0c5.5,1.4,10.9,2.4,16,4.2c7.2,2.7,9.4,9.6,5.4,16.2c-4,6.6-8.2,13.2-12.4,19.6c-4.9,7.5-13.8,7.4-18.8-0.1
		c-4.2-6.4-8.3-12.8-12.2-19.3c-4.1-6.6-1.7-13.8,5.6-16.4C180.5,2.4,186,1.4,191.6,0z M191.3,33.9c4.3-6.7,8.1-12.8,12.3-19.3
		c-8.4-3.4-16.2-3.4-24.4,0.2C183.2,21.1,187,27.2,191.3,33.9z"/>
	<path d="M132.6,64.2c-6-1.7-13.7-3.5-21-6.1c-4.7-1.7-6.4-7.3-4.5-12c4.1-10,11.5-16.5,21.6-19.8c5.4-1.8,10.9,1.6,12.2,7.4
		c1.3,6.5,2.5,13,3.5,19.5C145.4,59.5,140.5,64.6,132.6,64.2z M132.9,52.6c-1-5.4-1.8-9.9-2.8-14.9c-5.5,2.3-9.4,5.7-12,11
		C123.2,50.1,127.7,51.3,132.9,52.6z"/>
	<path d="M250.1,64.3c-7.2-0.1-11.8-4.6-11.1-10.2c0.9-7,2.2-14,3.8-20.9c1.3-5.8,6.9-8.5,12.5-6.6c9.4,3.2,16.4,9.3,20.5,18.4
		c2.8,6.1,0.4,12.1-6,14C262.8,61.1,255.7,62.8,250.1,64.3z M265.3,48.8c-2.9-5.4-6.6-8.8-12.1-11c-0.9,5.1-1.7,9.8-2.7,14.9
		C255.6,51.3,260.2,50.1,265.3,48.8z"/>
	<path d="M299.7,66.6c-2.8,4.8-5,9.3-7.9,13.1c-0.8,1.1-4.6,1.1-6,0.2c-1.5-1.1-2.7-4.2-2.2-5.9c1.1-3.7,3.1-7.4,5.4-10.5
		c1-1.3,4.1-2,5.8-1.6C296.5,62.4,297.8,64.6,299.7,66.6z"/>
	<path d="M87.7,91.5c2,2,4.3,3.2,4.8,5c0.5,1.6-0.1,4.7-1.4,5.6c-3.4,2.4-7.2,4.5-11.1,5.8c-1.5,0.5-4.5-1-5.5-2.4
		c-0.9-1.3-1-4.9,0-5.6C78.4,96.8,82.9,94.5,87.7,91.5z"/>
	<path d="M91.4,61.3c0.8,0.6,2.7,1.6,3.7,3.1c1.8,2.7,3.2,5.6,4.5,8.5c1.4,3,0.3,6-2.3,7.4c-2.6,1.4-5.8,0.6-7.4-2.2
		c-1.8-3-3.4-6.1-4.8-9.3C83.7,65.2,86.5,61.3,91.4,61.3z"/>
	<path d="M304.4,109.2c-4.7-2.7-9.1-4.8-12.8-7.8c-1.1-0.9-1-4.8,0-6.2c1-1.4,4.3-2.5,6-1.9c3.5,1,6.8,3.1,9.9,5
		c2.4,1.5,3.1,4.2,1.8,6.5C308.4,106.5,306.3,107.5,304.4,109.2z"/>
</g>
</svg>
