<svg version="1.1" id="Layer_1" xmlns="http://www.w3.org/2000/svg" xmlns:xlink="http://www.w3.org/1999/xlink" x="0px" y="0px"
	 viewBox="0 0 390 384" style="enable-background:new 0 0 390 384;" xml:space="preserve" fill='#BA925D'>
<g>
	<path d="M3,240.1c1.5-7.7,2.5-15.5,4.6-23c14.7-52.7,66.5-87.8,121-82.2c24.2,2.5,45.5,11.7,63.9,27.5c0.8,0.6,1.5,1.3,2.5,2.1
		c1.8-1.5,3.6-3.1,5.5-4.5c34.3-26.6,72.4-33.4,112.8-17.9c40.9,15.6,64.8,46.4,72.5,89.6c0.5,2.8,0.9,5.6,1.3,8.4
		c0,5.7,0,11.5,0,17.3c-0.8,5-1.4,10.1-2.5,15.1c-18.7,85.5-120.7,119.6-187,62.6c-0.8-0.7-1.7-1.3-2.6-2c-0.8,0.6-1.3,1.1-1.9,1.6
		c-18.4,16.1-39.8,25.4-64.1,27.9c-54.6,5.7-106.6-29.4-121.3-82.2c-2.1-7.5-3.1-15.3-4.6-23C3,251.6,3,245.8,3,240.1z M206.6,299.3
		c23.9-40.2,17.4-100-29-133.7c-45-32.7-107.3-23.7-141.4,20.2C2.3,229.4,9.1,292,51.6,327.6c42.4,35.4,101.7,29.1,135-3.3
		c-0.8-1-1.5-1.9-2.3-2.9c-0.8-0.9-1.6-1.8-2.5-2.8c-1.3,1.1-2.3,2-3.4,2.8c-22.2,18.2-47.7,25.6-75.9,21
		c-49.3-8-83-50.5-79.8-100.3c0.6-8.8,3.4-17.6,5.6-26.3c0.9-3.6,4.3-4.8,7.4-3.6c2.9,1.1,4.3,4,3.4,7.3c-0.3,1.1-0.7,2.1-1,3.2
		c-3.9,11.8-5,23.9-3.5,36.3c6.2,50.2,55.8,83.4,104.7,70.1c13.6-3.7,25.6-10.4,35.8-20.4c-11.1-18.5-16.9-38.4-17-59.9
		c0-21.6,5.8-41.6,17.2-60.7c-0.8-0.5-1.7-0.9-2.3-1.5c-24.6-22.4-61.6-27.7-91.6-13.2c-12.5,6.1-22.9,14.6-31.1,25.8
		c-2.1,2.8-4.4,4.5-7.9,3.2c-4-1.5-4.7-5.9-1.5-10c23.1-29.8,53.6-42.9,90.8-37.6c61.9,8.8,98,75.1,72.4,132.3
		c-2.2,4.9-1.4,8,1.7,11.5C206,298.8,206.2,298.9,206.6,299.3z M214.8,188.7c11.2,18.6,17,38.5,17,60c0,21.6-5.9,41.6-16.8,59.9
		c13.9,15.4,41,25.1,63,23.3c25.6-2.2,46.1-13.5,61.7-33.8c2.9-3.8,6.4-4.6,9.2-2.3c2.7,2.2,2.9,5.6,0,9.3
		c-23.2,29.7-53.7,42.8-90.9,37.5c-62.1-9-97.9-75.5-72.2-132.8c2.6-5.7,2.2-7.3-2.7-11.4c-24.6,42.1-16,102.9,32,135.5
		c45.6,31,108.1,19.9,140.5-24.8c32.8-45.3,23.7-107.8-20.6-141.9c-43.3-33.3-101.2-24.4-131.7,6c1.5,1.8,3,3.6,4.7,5.7
		c1.2-1,2.2-1.9,3.3-2.8c22.3-18.4,47.9-25.9,76.2-21.1c49.1,8.2,82.2,49.5,79.7,99.3c-0.4,9-3.2,17.9-5.4,26.7
		c-0.9,3.9-4.2,5.4-7.5,4.3c-3.3-1.1-4.6-4.1-3.5-7.9c0.3-1.1,0.7-2.1,1-3.2c4.7-14.8,5.3-29.7,1.7-44.7
		c-10-41.6-49.4-68.8-91.7-63.4C244,168.3,228.3,175.8,214.8,188.7z M195,219.4c-7.6,19.5-7.7,39.1,0,58.6
		C202.6,258.5,202.6,239,195,219.4z"/>
	<path d="M255.1,57.3C255,68.2,252,77,245.1,84c-15,15.4-30.3,30.5-45.5,45.7c-3.2,3.2-6.2,3.1-9.4-0.2
		c-15-14.9-30.1-29.6-44.7-44.9c-13.4-14-14.1-35-2.3-49.6c12.2-15,32.9-18.4,49.6-8c2.1,1.3,3.2,0.7,4.9-0.3
		c12.5-7.4,25.5-7.9,38.1-0.8C248.4,32.9,254.5,44.1,255.1,57.3z M195,117.2c14.1-13.9,28.4-27.4,42-41.7c9.5-9.9,8.5-25.6-1.2-35.3
		c-9.6-9.6-24.9-10.2-35.4-1.2c-4.6,4-6.3,4-11,0c-10.5-8.9-25.7-8.4-35.4,1.2c-9.7,9.6-10.7,25.3-1.2,35.3
		C166.6,89.8,181,103.4,195,117.2z"/>
</g>
</svg>
