<?xml version="1.0" encoding="utf-8"?>
<!-- Generator: Adobe Illustrator 23.0.1, SVG Export Plug-In . SVG Version: 6.00 Build 0)  -->
<svg version="1.1" id="Layer_1" xmlns="http://www.w3.org/2000/svg" xmlns:xlink="http://www.w3.org/1999/xlink" x="0px" y="0px"
	 viewBox="0 0 384 377.2" style="enable-background:new 0 0 384 377.2;" xml:space="preserve" fill='#826F41'>
<g>
	<path d="M0,171.3c0.2-0.4,0.5-0.8,0.6-1.3c4.7-21.3,23.7-34.3,45.5-31.5c15.4,2,28.9,8.5,41.4,17.3c2.1,1.5,3.7,2.2,6.3,0.7
		c2.7-1.6,3.9-3,3.6-6.3c-1.2-14.1,0.1-28,5.6-41.2c0.8-2,1.8-3.9,2.9-5.7c1.9-3.1,4.9-4,7.7-2.5c2.8,1.5,3.5,4.4,2.2,7.8
		c-2.1,5.5-4.6,10.9-5.7,16.5c-1.4,7.3-1.6,14.8-2.3,22.1c5.9-1.3,10.9-2.5,15.6-3.5c3-7.1,6-14.5,9.3-21.7c1.6-3.4,5-4.3,7.8-2.9
		c2.9,1.5,3.5,4.8,1.9,8.5c-2.5,6-4.8,12-7.1,18.1c-0.9,2.3-0.4,4,1.3,6.1c2.9,3.7,5.2,7.9,8.3,12.8c3-2.6,6.4-4.8,8.7-7.8
		c7.1-9.4,12.3-19.6,14-31.5c2.7-18.3-10.2-33.7-27.8-32.7c-3,0.2-6.1,1.2-9.1,2.1c-3.8,1.1-6.8,0-8-3.2c-1.1-3.1,0.3-5.7,4-7.3
		c22.1-9.6,47.9,4.8,51.7,28.8c1.7,10.5-0.3,20.4-4.1,30.1c-0.6,1.5-1.3,3-2.2,5.1c1.3-0.5,2.2-0.8,2.9-1.2
		c9.1-5,18.1-10.1,27.2-15.1c9.9-5.5,19.2-2.8,24.8,7.1c3.2,5.7,6.3,11.3,9.5,17c6.1,10.9,3.6,19.8-7.3,25.8
		c-23.2,13-46.5,25.9-69.7,38.9c-1.1,0.6-2.1,1.2-3.1,2.7c1.4,0,2.8,0,4.2,0c43.1,0,86.2,0,129.4,0c1.2,0,2.5,0,3.7,0
		c7.7,0.6,13,6,13,13.7c0.1,40.1,0.1,80.2,0,120.4c0,10.9-7.8,18.7-18.8,19.6c-1.2,0.1-2.5,0.1-3.7,0.1c-60.9,0-121.7,0-182.6,0
		c-2.7,0-5.5-0.1-8.2-0.8c-9.1-2.4-14.7-10.2-14.7-20.6c0-28.5,0-57,0-85.5c0-1.3,0-2.6,0-4.6c-9.3,5.2-18,10-26.7,14.9
		c-3.5,1.9-6.9,4-10.5,5.7c-8.2,4-17.2,1.5-21.8-6.3c-4.2-7-8.1-14.1-11.8-21.3c-4.3-8.3-1.5-17.5,6.8-22.3
		c9.3-5.3,18.7-10.5,28.1-15.7c1-0.6,2-1.2,3-1.8c-6.5-1.8-13-3.2-19-5.5c-14.1-5.5-23.4-15.4-26.3-30.6c-0.1-0.3-0.3-0.7-0.5-1
		C0,178.3,0,174.8,0,171.3z M160.5,234.6c-8,0-15.5-0.1-22.9,0.1c-1.9,0-4,0.6-5.6,1.5c-12.9,7.1-25.7,14.4-38.6,21.4
		c-2.4,1.3-3.2,2.8-3.2,5.5c0.1,30.5,0.1,61,0.1,91.5c0,8.5,3,11.5,11.6,11.5c18.2,0,36.5,0,54.7,0c1.3,0,2.6-0.1,4.1-0.2
		c0-17.9,0-35.4,0-52.9c0-4.8,2-7.3,5.6-7.3c3.7,0,5.7,2.5,5.7,7.2c0,14.1,0,28.2,0,42.4c0,3.5,0,7,0,10.5c14.3,0,28.3,0,42.3,0
		c0-43.8,0-87.2,0-130.8c-14.2,0-28.1,0-42.3,0c0,9.9,0,19.5,0,29.1c0,6.7,0.1,13.5,0,20.2c-0.1,3.5-2.4,5.8-5.6,5.8
		c-3.2,0-5.4-2.2-5.6-5.7c-0.1-1.2,0-2.5,0-3.7C160.5,265.3,160.5,250.2,160.5,234.6z M225.7,365.7c1.1,0.1,1.8,0.2,2.5,0.2
		c19.1,0,38.2,0.1,57.3,0c7.2,0,10.1-3.3,10.1-10.9c0-38.5,0-76.9,0-115.4c0-4.8-0.3-5.1-5.1-5.1c-20.4,0-40.7,0-61.1,0
		c-1.2,0-2.4,0-3.8,0C225.7,278.5,225.7,321.9,225.7,365.7z M79.1,163.5c-3.1-1.8-6.5-4.1-10.2-6c-9.4-4.9-19.2-8.4-30-7.9
		c-16.2,0.6-28.5,13.1-27.6,28.4c0.7,12.2,7.9,19.9,18.6,24.6c10.8,4.8,22.3,5.4,33.8,4.5c3.4-0.3,6.7-1.9,10.4-3
		c-2.5-4.9-5.1-8.7-6.3-12.9c-1.1-3.7-3-5.4-6.5-5.8c-0.9-0.1-1.7-0.5-2.5-0.6c-5.2-0.9-10.3-1.7-15.5-2.6c-3.3-0.6-5.1-2.7-4.9-6.1
		c0.2-3.1,2.8-5.1,6.3-4.9c1.6,0.1,3.2,0.2,4.8,0.5c6.2,1.2,12.4,2.4,17.7,3.4C71.3,171,75.1,167.4,79.1,163.5z M79.4,213.3
		c-19.8,11.1-39.3,21.9-58.8,32.8c-3.5,2-4.2,4.6-2.3,8.2c3.3,6,6.7,12,10,18c2.9,5.2,5,5.8,10.3,2.9C57,265,75.3,254.8,93.6,244.6
		c0.8-0.5,1.6-1.1,2.4-1.7C90.4,233,84.9,223.2,79.4,213.3z M166.5,203.9c20-11.1,39.6-22,59.1-33c3.3-1.8,3.8-4.5,2-8
		c-3.2-5.9-6.5-11.8-9.8-17.6c-3.1-5.6-5.2-6.2-10.8-3.1c-18,10-35.9,20-53.9,30c-1,0.6-2,1.3-3.1,2
		C155.5,184.2,160.9,193.8,166.5,203.9z M156.7,209.4c-5.7-10.3-11.2-20-16.7-29.9c-17.1,9.5-33.8,18.8-50.7,28.3
		c5.6,10.1,11.1,19.9,16.7,29.9C123,228.2,139.7,218.9,156.7,209.4z M134.5,169.7c-1.9-3.3-3.4-6.3-5.2-9.2c-3-4.7-8.2-6.3-13.1-3.6
		c-11.3,6.1-22.5,12.4-33.7,18.8c-4.4,2.5-6.2,7.6-4.3,12c1.5,3.5,3.6,6.7,5.5,10.3C100.8,188.5,117.5,179.2,134.5,169.7z"/>
	<path d="M363.3,214.1c-2.1-0.8-5.7-1.7-8.7-3.5c-6.9-4.1-13.4-4-20.2,0.1c-2.1,1.3-4.6,2-6.9,2.8c-5.9,1.9-10.3-1.3-10-7.6
		c0.3-5.2,1-10.4,1.2-15.7c0.1-1.7-0.6-3.7-1.6-5c-2.9-3.9-6.2-7.5-9.3-11.3c-4.8-5.9-3-11.2,4.4-13.1c4.3-1.1,8.8-1.9,13-3.3
		c1.9-0.6,3.9-2.1,5.1-3.7c2.7-3.7,4.8-7.9,7.2-11.8c4.1-6.6,9.9-6.5,14.1,0.1c2.5,3.9,4.6,8,7.2,11.8c1.1,1.5,3,2.9,4.8,3.5
		c4.5,1.4,9.2,2.2,13.8,3.5c7,2,8.6,7,4.1,12.7c-2.9,3.6-5.7,7.3-8.9,10.6c-1.9,2-2.5,4.1-2.2,6.8c0.5,5,0.9,9.9,1.1,14.9
		C371.8,211.1,369.1,214.1,363.3,214.1z M345.1,152.1c-3.5,5.1-5.7,10.6-9.8,13.6c-4.1,3-10,3.6-16.1,5.6
		c10.4,7.6,12.9,17.5,10,29.7c10.5-7.1,20.5-6.4,30.9-0.1c-3.3-12.2-0.2-22,9.6-30.3C356.8,170.2,348.9,163.9,345.1,152.1z"/>
	<path d="M207.7,73.3c0.3-3.7,0.4-7.5,0.9-11.2c0.4-3-0.5-5.2-2.5-7.4c-3.1-3.4-6-7-8.9-10.6c-4-5.2-2.4-10.3,3.9-12.1
		c4.8-1.4,9.7-2.3,14.5-3.8c1.8-0.6,3.6-2,4.7-3.6c2.6-3.7,4.6-7.7,7-11.5c4.2-6.8,10.1-6.9,14.3-0.2c3.1,4.8,5.1,11,9.4,14.2
		c4.2,3.1,10.6,3.1,16,4.6c7.5,2,9,7.1,4.2,13.1c-3.1,3.8-6.3,7.4-9.2,11.3c-0.9,1.3-1.6,3.1-1.5,4.7c0.2,5,0.8,10,1.2,14.9
		c0.6,7.3-4,10.8-10.8,8.3c-3.5-1.3-7.1-2.5-10.3-4.3c-4.1-2.3-7.9-2.1-11.9,0.1c-3.1,1.6-6.4,2.8-9.7,4c-7.5,2.9-11.8-0.3-11.3-8.2
		C207.6,74.8,207.7,74.1,207.7,73.3C207.7,73.3,207.7,73.3,207.7,73.3z M209.7,41.4c9.7,8.1,12.5,17.9,9.4,30
		c10.4-6.4,20.4-6.7,30.3,0.3c0-6.2-1.2-11.9,0.3-16.8c1.6-4.9,5.8-9,8.9-13.4c-5.1-1.7-11-2.3-15-5.3c-4-3-6.2-8.4-9.8-13.6
		C230.1,34.8,222.1,40.6,209.7,41.4z"/>
	<path d="M324.2,56.1c-15.5,0.1-28.1-12.4-28.3-27.9C295.8,12.8,308.3,0.1,323.8,0c15.5-0.1,28.1,12.3,28.3,27.9
		C352.2,43.4,339.7,56,324.2,56.1z M323.9,44.9c9.4,0.1,17-7.4,17-16.8c0-9.2-7.3-16.7-16.5-16.8c-9.4-0.2-17,7.2-17.2,16.6
		C307,37.2,314.5,44.8,323.9,44.9z"/>
	<path d="M284.9,124.8c-0.5,19.7-1.9,39.3-9.8,57.6c-2.7,6.3-6.9,12.1-10.8,17.8c-1.8,2.6-5.4,2.7-7.7,0.9c-2.5-2-3.1-5.3-0.8-8
		c11.1-13.1,14.3-29.1,16.4-45.4c2.1-16.1,1.9-32.2,0.7-48.3c-0.1-0.7-0.1-1.5-0.1-2.2c0-3.3,2-5.7,4.9-6c2.9-0.3,5.7,1.6,6.1,4.9
		c0.6,4.8,0.9,9.7,1.1,14.6C285.1,115.3,284.9,120.1,284.9,124.8z"/>
	<path d="M384,57.2c-0.3,3.1-2.4,4.6-5.5,5.4c-11.8,3-22.4,8.4-31.4,16.7c-11.4,10.5-19.1,23.2-23.9,37.9c-0.3,0.9-0.5,1.9-0.9,2.9
		c-1.2,3-4,4.5-6.9,3.6c-2.9-0.9-4.9-3.7-3.8-6.7c2.6-7.2,5.1-14.7,8.7-21.4c12.1-22.4,30.4-37.3,55.2-43.8
		C380.4,50.5,384.1,52.8,384,57.2z"/>
</g>
</svg>
