<?xml version="1.0" encoding="utf-8"?>
<!-- Generator: Adobe Illustrator 23.0.1, SVG Export Plug-In . SVG Version: 6.00 Build 0)  -->
<svg version="1.1" id="Layer_1" xmlns="http://www.w3.org/2000/svg" xmlns:xlink="http://www.w3.org/1999/xlink" x="0px" y="0px"
	 viewBox="0 0 225.1 384" style="enable-background:new 0 0 225.1 384;" xml:space="preserve" fill='#BA925D'>
<path d="M110.3,384c-2-1.7-4.1-3.3-5.9-5.1C90.9,365.5,77.6,352,64,338.7c-3.3-3.2-4.2-6.5-3.6-11.1c4.5-31.9,8.8-63.8,13.1-95.7
	c4.4-31.9,8.8-63.8,13.2-95.7c0.8-5.9,1.6-11.9,2.5-17.8c0.5-2.9,0-5.3-1.8-7.7c-2.1-2.6-3.8-5.5-5.9-8.7
	c-4.1,7.2-5.7,14.6-6.4,22.3c0,0.5,0,1,0,1.5c-0.1,5.1-2,8-5.7,9c-3.4,0.9-6.4-0.6-9.2-4.8c-7.9-11.8-15.8-23.7-23.7-35.5
	C25.2,77.5,13.9,60.5,2.6,43.6c-3.8-5.7-3.5-8.3,1.3-13.1c8.5-8.5,16.9-17,25.5-25.4c1.8-1.8,3.9-3.4,5.9-5.1c51.5,0,103,0,154.5,0
	c2.1,1.8,4.3,3.4,6.2,5.3c8.6,8.5,17.2,17.1,25.7,25.7c4.1,4.2,4.4,7.1,1.2,12c-19.4,29.1-38.8,58.2-58.2,87.3
	c-2.6,3.9-5.6,5.4-9,4.4c-3.7-1-5.5-3.8-5.7-8.7c-0.3-8.4-2.3-16.3-6.4-24.2c-2.7,4-5.3,7.7-7.5,11.5c-0.7,1.1-0.5,2.9-0.3,4.3
	c2.6,19.1,5.2,38.1,7.8,57.2c0.5,4,1.1,7.9,1.7,11.9c0.6,4.7-2,8.5-6.2,9.1c-4.5,0.6-7.9-2-8.6-6.8c-2.8-19.9-5.5-39.8-8.2-59.7
	c-0.4-3-0.8-5.9-1.3-9.1c-5.6,0-11.1,0-16.9,0c-0.9,6.6-1.9,13.3-2.8,19.9c-4.4,32-8.8,64.1-13.2,96.1c-4.1,29.8-8.2,59.6-12.2,89.5
	c-0.2,1.4,0.1,3.5,1,4.4c11.6,11.9,23.4,23.6,35.5,35.6c1-0.9,1.9-1.7,2.7-2.5c10.6-10.6,21.2-21.3,31.9-31.8
	c1.9-1.9,2.6-3.6,2.2-6.2c-3.2-22.5-6.3-45-9.4-67.5c-0.7-5,1.7-8.9,6.1-9.6c4.7-0.7,8,2,8.8,7.5c3.4,24.6,6.9,49.2,10.1,73.9
	c0.3,2.5-0.8,6-2.5,7.7c-14.5,14.9-29.2,29.5-43.9,44.1c-1,1-2.3,1.8-3.5,2.7C113.3,384,111.8,384,110.3,384z M162.1,107.1
	c15.5-23.2,30.6-45.8,45.5-68.2c-7-7-13.9-13.9-21-21c-19.5,15.6-39.2,31.4-59.2,47.4C144.5,74.8,155.8,88.5,162.1,107.1z
	 M17.4,38.8C32.5,61.4,47.5,83.9,63,107.1c6.3-18.8,17.7-32.4,34.8-41.8C77.7,49.2,57.9,33.4,38.3,17.8
	C31.2,24.9,24.4,31.7,17.4,38.8z M165.8,15.3c-35.8,0-70.8,0-106.5,0c18.1,14.5,35.6,28.5,53.2,42.6
	C130.2,43.7,147.7,29.7,165.8,15.3z M90.9,89c3.3,5,6.5,9.9,9.9,14.7c0.6,0.8,2.1,1.3,3.1,1.3c5.7,0.1,11.5,0.1,17.2,0
	c1,0,2.5-0.2,3-0.9c3.5-4.9,6.8-10,10.1-15.1c-5.9-5.9-12.3-10.1-19.7-12.8c-1.1-0.4-2.5-0.5-3.6-0.1C103.4,78.8,96.7,83,90.9,89z"
	/>
<path d="M150,221.9c0,4.1-3.5,7.6-7.6,7.5c-4-0.1-7.3-3.4-7.4-7.4c0-4.1,3.4-7.6,7.6-7.5C146.6,214.6,150,217.9,150,221.9z"/>
</svg>
