<?xml version="1.0" encoding="utf-8"?>
<!-- Generator: Adobe Illustrator 23.0.1, SVG Export Plug-In . SVG Version: 6.00 Build 0)  -->
<svg version="1.1" id="Layer_1" xmlns="http://www.w3.org/2000/svg" xmlns:xlink="http://www.w3.org/1999/xlink" x="0px" y="0px"
	 viewBox="0 0 384 384" style="enable-background:new 0 0 384 384;" xml:space="preserve" fill='#BA925D'>
<path d="M315.6,46.2c0,8.6,0.2,16.6-0.1,24.5c-0.1,2.4-1.2,5.1-2.7,6.9c-5.3,6.2-11,12-16.5,17.9c-3.7,3.9-5.4,3.9-8.9,0.1
	c-5.7-6.1-11.5-12.2-17-18.5c-1.3-1.5-2.2-3.9-2.3-6c-0.3-8.2-0.1-16.4-0.1-25.1c-6.4,0-12.3-0.1-18.3,0.1c-1,0-2.3,1.7-2.7,2.9
	c-6.5,16.9-7,34.1-1.3,51.3c1.1,3.3,2.3,6.6,3.5,9.9c0.9,2.5,0.2,4.6-2.3,5.5c-2.6,1-4.3-0.3-5.3-2.7c-9.8-23.5-11.1-47.1-0.7-70.9
	c1.4-3.2,3.4-4.5,6.9-4.5c7.6,0.2,15.2,0,22.9,0.1c4.4,0,5.6,1.2,5.6,5.6c0,8.4-0.1,16.8,0.1,25.1c0,1.7,0.8,3.6,1.9,4.9
	c4.3,4.9,8.8,9.5,13.6,14.7c5.1-5.5,10.1-10.8,15-16.2c0.7-0.8,0.6-2.4,0.6-3.6c0-8.2,0-16.5,0-24.7c0-4.6,1.1-5.7,5.8-5.8
	c7.7-0.1,15.5,0.1,23.2,0c3.1,0,5.1,1.1,6.4,4.1c9,20.2,10.1,40.7,3.3,61.7c-1,3.2-2,6.4-3.4,9.5c-6.8,15.7-8.5,32.1-7.5,49
	c0.4,6.2-0.8,7.1-7.1,7.1c-23.1,0-46.2,0-69.4,0c-2.3,0-3.8,0.4-5.2,2.6c-23.3,35.6-37.3,74.7-41.8,117c-0.9,8.9-1,18-1.5,26.9
	c-0.3,4.6,1.4,8.3,5.3,10.4c5.8,3.1,11.8,5.7,18.3,8.7c1.7-8.4,3.1-15.7,4.5-23c3.6-18.5,7.1-37,10.8-55.5c0.3-1.7,1.3-3.6,2.6-4.6
	c0.8-0.7,3.3-0.5,4,0.3c1,1.1,1.7,3.1,1.5,4.5c-1.7,10.1-3.7,20.1-5.7,30.2c-3,15.7-6.1,31.4-9.2,47c-0.1,0.7-0.1,1.5-0.2,3.3
	c15.1,1.6,30.2,3.2,45.7,4.8c0-2.4,0-3.7,0-5.1c0-26.2,0-52.5,0-78.7c0-1.1-0.4-2.6,0.2-3.3c1.1-1.4,2.6-3.2,4.1-3.3
	c1.2-0.1,2.8,1.9,3.8,3.2c0.5,0.8,0.2,2.2,0.2,3.3c0,26.2,0,52.5,0,78.7c0,1.4,0,2.7,0,5.2c15.5-1.6,30.5-3.2,46.1-4.8
	c-1.3-6.9-2.4-12.8-3.5-18.6c-3.9-19.8-7.8-39.7-11.7-59.5c-1-4.9-0.2-7.2,2.7-7.7c2.9-0.6,4.5,1.2,5.4,6.1
	c4.8,24.8,9.6,49.5,14.4,74.3c0.1,0.7,0.4,1.4,1,3.1c6.4-3,12.7-5.7,18.6-8.9c3.8-2.1,4.9-6.1,4.8-10.3
	c-0.4-43.9-10.8-85.2-31.5-124c-0.8-1.4-1.6-2.8-2.3-4.3c-1.1-2.3-1-4.5,1.4-5.8c2.6-1.5,4.7-0.3,5.8,2.1
	c5.1,10.4,10.6,20.7,15,31.4c13.5,32.7,19.7,67,19.9,102.3c0,6-2.9,10.5-7.3,14.1c-7.8,6.4-17.2,9.6-26.8,12
	c-26.9,6.5-54.1,7.4-81.5,4.9c-13.6-1.2-27.1-3.2-39.9-7.9c-6.2-2.3-12.2-5.7-17.8-9.3c-5-3.2-6.9-8.5-6.9-14.6
	c0.3-54.4,15.2-104.4,45.1-149.9c1.1-1.6,1.7-3.9,1.8-5.9c0.2-7.7,0.1-15.5,0.1-23.2c0-4.7,1.2-6,6-6c23.1,0,46.2-0.1,69.4,0.1
	c3.1,0,4.3-1,5.1-3.8c3.6-11.9,8.1-23.6,11.1-35.7c3.6-14.5,1.8-29-3.7-43c-0.9-2.2-1.9-3.1-4.3-3C327.1,46.3,321.6,46.2,315.6,46.2
	z M257.4,161c23.4,0,46.4,0,69.4,0c0-7.1,0-13.9,0-20.9c-23.2,0-46.2,0-69.4,0C257.4,147,257.4,153.9,257.4,161z"/>
<path d="M156.8,114.8c-1.6,14.8-3,28.6-4.4,42.4c-0.1,1.4,0.4,2.9,0.9,4.3c3.5,9.9,7.1,19.7,10.6,29.6c1.9,5.2,0.4,7.3-5.1,7.3
	c-12.7,0-25.5-0.2-38.2,0.1c-4.3,0.1-7.2-1-8.9-5.1c-0.6-1.5-1.7-2.8-2.8-4.6c-1.5,2.4-2.8,4.4-4,6.5c-1.2,2.2-3,3.1-5.5,3.1
	c-13.7-0.1-27.5,0-41.2-0.1c-4.5,0-6.1-2.3-4.6-6.6c2.7-7.8,5.2-15.6,8.3-23.3c2.6-6.6,3.8-13.1,2.8-20.4
	c-1.6-10.7-2.3-21.5-3.6-33.2c-1.2,1.7-1.9,2.6-2.5,3.6c-8.7,14-17.3,28.1-26,42.1c-2.8,4.6-4.2,4.9-8.7,2.2
	c-6.3-3.8-12.6-7.6-18.9-11.4c-3.7-2.3-4.2-3.9-1.9-7.7C21.9,112.8,40.7,81.9,59.6,51c0.9-1.5,2.5-2.8,4.1-3.6
	c8-4.1,16.1-8,24.2-11.8c1.5-0.7,3.3-1.2,5-1.2c10.6-0.1,21.2-0.1,31.9,0c1.8,0,3.7,0.5,5.4,1.3c8,3.8,16,7.6,23.9,11.7
	c1.7,0.9,3.3,2.3,4.3,3.9c18.8,30.7,37.5,61.4,56.1,92.1c2.7,4.4,2.3,5.8-2.1,8.4c-6.3,3.8-12.6,7.6-19,11.4c-3.9,2.3-5.5,1.9-7.9-2
	c-8.6-13.9-17.2-27.8-25.8-41.8C159,118.1,158.1,116.9,156.8,114.8z M62.9,190.2c11.8,0,22.9,0.1,34-0.1c0.9,0,2.1-1.1,2.7-2
	c1.9-2.8,3.5-5.8,5.3-8.6c2.5-3.9,5.6-3.8,8.1,0.1c1.7,2.7,3.2,5.7,5.1,8.3c0.9,1.2,2.7,2.2,4.1,2.3c6.7,0.2,13.5,0.1,20.2,0.1
	c4,0,7.9,0,12.4,0c-0.6-1.9-1-3.2-1.5-4.4c-2.8-7.7-5.6-15.5-8.3-23.3c-0.6-1.6-1-3.4-0.9-5.1c1.8-17.9,3.7-35.8,5.5-53.7
	c0.2-2.4,0.3-4.9,3.4-5.5c3-0.6,4.2,1.5,5.5,3.6c10.1,16.5,20.3,33,30.5,49.4c0.7,1.1,1.5,2.3,2.3,3.5c5.2-3.1,10-6.1,15-9
	c-0.9-1.5-1.5-2.5-2.1-3.6c-16.9-27.8-33.9-55.7-50.8-83.6c-2.1-3.5-4.9-5.3-8.6-6.5c-0.6,1.3-1.1,2.4-1.6,3.5
	c-9.9,22.1-19.7,44.2-29.6,66.3c-1,2.2-1.9,5-4.8,4.2c-1.8-0.5-3.7-2.4-4.5-4.2c-10.1-22.1-20-44.4-29.9-66.6
	c-0.5-1.1-1.1-2.2-1.5-3.2c-4.1,1.1-6.7,3.4-8.7,6.8c-16.8,27.8-33.7,55.5-50.6,83.2c-0.6,1-1.2,2.1-1.9,3.5c5.1,3,9.9,6,14.9,8.9
	c0.8-1.3,1.5-2.3,2.2-3.4c10.2-16.5,20.3-32.9,30.5-49.4c1.4-2.2,2.7-4.4,5.8-3.5c2.9,0.8,3,3.3,3.3,5.7c1.4,13.5,2.5,27.1,4.3,40.6
	c1.2,9.1,1.1,17.7-2.8,26.3C67.1,177,65.3,183.4,62.9,190.2z M108.9,112.4c9.8-22,19.1-43,28.4-63.8c-6.7-4.3-13.4-6.9-21.2-6.2
	c-5.3,0.5-10.8,0.5-16.1,0c-7.5-0.8-13.4,2.8-19.8,6.1C89.8,69.6,99.2,90.6,108.9,112.4z"/>
<path d="M108.7,251c-0.7,6.4-1.5,12.8-2.1,19.2c-2.3,22.9-4.7,45.7-7,68.6c0,0.4-0.1,0.7-0.2,1.1c-0.4,2.7-1.6,4.7-4.6,4.4
	c-2.9-0.3-3.8-2.4-3.6-5.2c0.7-6.6,1.3-13.2,1.9-19.8c2.7-25.8,5.3-51.7,8-77.5c1.1-11.1,2.4-22.1,3.5-33.2c0.3-2.7,1.1-4.8,4.1-4.8
	c3.2,0,4,2.3,4.3,5.1c4.4,43,8.9,86,13.3,128.9c0.1,0.5,0.1,1,0.1,1.5c0.1,2.8-1.1,4.8-3.9,4.9c-2.7,0.1-4-1.7-4.3-4.3
	c-1.5-14.5-3-29.1-4.5-43.6c-1.6-15.1-3.1-30.3-4.7-45.4C109.1,251,108.9,251,108.7,251z"/>
<path d="M156.8,277.3c0,20,0,40,0,60c0,1.1,0.4,2.5-0.1,3.3c-1,1.5-2.6,3.5-3.9,3.6c-1.4,0-2.9-2-4-3.4c-0.4-0.5-0.1-1.7-0.1-2.6
	c0-40.4,0-80.7,0-121.1c0-1.1-0.3-2.6,0.3-3.3c1.1-1.3,2.7-2.8,4.2-2.8c1.2,0,2.7,1.7,3.6,3c0.5,0.8,0.2,2.2,0.2,3.3
	C156.8,237.3,156.8,257.3,156.8,277.3z"/>
<path d="M69.2,277.5c0,20,0,40,0,60c0,1.2,0.3,2.8-0.3,3.7c-0.8,1.3-2.4,2.9-3.6,3c-1.3,0-2.9-1.5-3.8-2.7c-0.6-0.8-0.4-2.4-0.4-3.6
	c0-40.1,0-80.2,0-120.3c0-1.4-0.2-3.1,0.5-4c0.9-1.2,2.6-2.4,4-2.4c1.2,0,2.7,1.6,3.3,2.8c0.6,1.1,0.3,2.7,0.3,4.1
	C69.2,237.8,69.2,257.7,69.2,277.5z"/>
<path d="M32.3,262.1c2.1,0,3.9-0.1,5.6,0c2.1,0.2,3.4,1.3,3.4,3.5c0,2.2-1.4,3.3-3.5,3.3c-1.7,0.1-3.4,0-5.5,0c0,1.9,0,3.6,0,5.2
	c0,2.2-1.1,3.8-3.4,3.8c-2.4,0.1-3.6-1.5-3.6-3.9c0-1.6,0-3.2,0-5.2c-1.8,0-3.4,0-4.9,0c-2.3,0-4-0.9-4-3.4c0-2.6,1.8-3.4,4-3.5
	c1.5-0.1,3,0,4.9,0c0-1.8,0-3.5,0-5.2c0-2.3,1.1-3.8,3.4-3.9c2.4-0.1,3.6,1.5,3.6,3.9C32.3,258.5,32.3,260.1,32.3,262.1z"/>
<path d="M366.3,144.1c2.1,0,3.9-0.1,5.6,0c2.1,0.2,3.4,1.3,3.4,3.5c0,2.2-1.4,3.3-3.5,3.3c-1.7,0.1-3.4,0-5.5,0c0,1.9,0,3.6,0,5.2
	c0,2.2-1.1,3.8-3.4,3.8c-2.4,0.1-3.6-1.5-3.6-3.9c0-1.6,0-3.2,0-5.2c-1.8,0-3.4,0-4.9,0c-2.3,0-4-0.9-4-3.4c0-2.6,1.8-3.4,4-3.5
	c1.5-0.1,3,0,4.9,0c0-1.8,0-3.5,0-5.2c0-2.3,1.1-3.8,3.4-3.9c2.4-0.1,3.6,1.5,3.6,3.9C366.3,140.5,366.3,142.1,366.3,144.1z"/>
<path d="M203.3,51.1c2.1,0,3.9-0.1,5.6,0c2.1,0.2,3.4,1.3,3.4,3.5c0,2.2-1.4,3.3-3.5,3.3c-1.7,0.1-3.4,0-5.5,0c0,1.9,0,3.6,0,5.2
	c0,2.2-1.1,3.8-3.4,3.8c-2.4,0.1-3.6-1.5-3.6-3.9c0-1.6,0-3.2,0-5.2c-1.8,0-3.4,0-4.9,0c-2.3,0-4-0.9-4-3.4c0-2.6,1.8-3.4,4-3.5
	c1.5-0.1,3,0,4.9,0c0-1.8,0-3.5,0-5.2c0-2.3,1.1-3.8,3.4-3.9c2.4-0.1,3.6,1.5,3.6,3.9C203.3,47.5,203.3,49.1,203.3,51.1z"/>
<path d="M21.3,15.1c2.1,0,3.9-0.1,5.6,0c2.1,0.2,3.4,1.3,3.4,3.5c0,2.2-1.4,3.3-3.5,3.3c-1.7,0.1-3.4,0-5.5,0c0,1.9,0,3.6,0,5.2
	c0,2.2-1.1,3.8-3.4,3.8c-2.4,0.1-3.6-1.5-3.6-3.9c0-1.6,0-3.2,0-5.2c-1.8,0-3.4,0-4.9,0c-2.3,0-4-0.9-4-3.4c0-2.6,1.8-3.4,4-3.5
	c1.5-0.1,3,0,4.9,0c0-1.8,0-3.5,0-5.2c0-2.3,1.1-3.8,3.4-3.9c2.4-0.1,3.6,1.5,3.6,3.9C21.3,11.5,21.3,13.1,21.3,15.1z"/>
<path d="M108.9,158.4c3.4,0,6.1,2.8,6.1,6.2c0,3.3-2.6,5.9-5.9,6c-3.4,0.1-6.3-2.6-6.3-6C102.7,161.3,105.6,158.5,108.9,158.4z"/>
<path d="M115,139.8c0.1,3.5-2.6,6.2-6.1,6.2c-3.4,0-6.2-2.8-6.1-6.2c0-3.2,2.8-5.9,5.9-6.1C112.1,133.6,114.9,136.4,115,139.8z"/>
</svg>
